#!OML:ASF I:\Actors\actors\Patient Classification 2\Patient 1\Session 1\actor1.ASF
:FULLY-SPECIFIED
:DEGREES
821
root -0.544828 18.7732 5.60942 0.879988 6.51812 -2.47009
lowerback 14.3867 -0.382865 0.948166
upperback -0.434774 -0.213239 1.51707
thorax -8.55887 -0.106384 1.1329
lowerneck -31.3705 -5.19291 -5.9197
upperneck 13.8216 -5.20462 3.32048
head 9.60888 -2.32581 1.24979
rclavicle 4.77083e-015 2.10712e-014
rhumerus 54.1822 11.1937 -55.9811
rradius 47.0244
rwrist -47.5252
rhand 8.08439 -67.1806
rfingers 7.12502
rthumb 33.3073 -265.885
lclavicle 4.77083e-015 2.10712e-014
lhumerus 52.775 -21.4963 72.2803
lradius 50.6708
lwrist 60.11
lhand -19.0419 5.65931
lfingers 7.12502
lthumb 7.26466 35.5146
rfemur 8.42033 -6.97119 15.5896
rtibia 7.95139e-015
rfoot -16.4978 -9.95284
rtoes -0.727785
lfemur -8.19658 -5.06733 -11.6762
ltibia 23.7494
lfoot -18.4792 7.77702
ltoes -56.1178
822
root -0.545581 18.7742 5.59452 0.890772 6.495 -2.52975
lowerback 14.4138 -0.400523 1.00817
upperback -0.419078 -0.224754 1.53337
thorax -8.55738 -0.114158 1.11898
lowerneck -31.3176 -5.15658 -5.90138
upperneck 13.924 -5.17227 3.32798
head 9.63623 -2.30976 1.25532
rclavicle 3.27995e-015 2.18663e-015
rhumerus 53.9152 11.3881 -56.149
rradius 47.0796
rwrist -47.4507
rhand 8.0746 -67.2055
rfingers 7.12502
rthumb 33.298 -265.858
lclavicle 3.27995e-015 2.18663e-015
lhumerus 52.4318 -21.5962 72.3987
lradius 50.7196
lwrist 60.1047
lhand -19.0236 5.6823
lfingers 7.12502
lthumb 7.28234 35.537
rfemur 8.34337 -6.94996 15.6675
rtibia 1.59028e-014
rfoot -16.4499 -9.99661
rtoes -0.817024
lfemur -8.24503 -5.13464 -11.6136
ltibia 23.7234
lfoot -18.4482 7.87116
ltoes -56.1251
823
root -0.545584 18.7748 5.57806 0.885729 6.47882 -2.53649
lowerback 14.4895 -0.41921 1.02509
upperback -0.404501 -0.245287 1.53391
thorax -8.58441 -0.124732 1.11512
lowerneck -31.2889 -5.10023 -5.86106
upperneck 14.0589 -5.11457 3.30471
head 9.67632 -2.28438 1.25032
rclavicle 1.31074e-014 -5.56597e-015
rhumerus 53.6181 11.6034 -56.2467
rradius 47.17
rwrist -47.3111
rhand 8.33018 -67.4065
rfingers 7.12502
rthumb 33.5409 -265.709
lclavicle 1.31074e-014 -5.56597e-015
lhumerus 52.1102 -21.7188 72.4675
lradius 50.7693
lwrist 60.0577
lhand -19.1897 5.66762
lfingers 7.12502
lthumb 7.12206 35.5278
rfemur 8.28885 -6.93326 15.6787
rtibia -1.59028e-014
rfoot -16.4081 -10.0453
rtoes -0.948511
lfemur -8.28478 -5.09793 -11.6076
ltibia 23.7124
lfoot -18.3989 7.86586
ltoes -56.151
824
root -0.546475 18.7749 5.56004 0.897398 6.46816 -2.55985
lowerback 14.5417 -0.437869 1.03085
upperback -0.384023 -0.267064 1.5483
thorax -8.59156 -0.135091 1.13238
lowerneck -31.204 -5.04448 -5.80899
upperneck 14.1528 -5.06107 3.26278
head 9.69224 -2.26331 1.23691
rclavicle 5.23052e-015 2.28602e-014
rhumerus 53.4138 11.8261 -56.2928
rradius 47.1871
rwrist -47.2634
rhand 8.44248 -67.4458
rfingers 7.12502
rthumb 33.6476 -265.693
lclavicle 5.23052e-015 2.28602e-014
lhumerus 51.7562 -21.7743 72.6128
lradius 50.8379
lwrist 60.1088
lhand -19.1487 5.74493
lfingers 7.12502
lthumb 7.16157 35.6038
rfemur 8.20743 -6.92344 15.7116
rtibia -3.18055e-015
rfoot -16.3629 -10.0752
rtoes -1.02469
lfemur -8.35438 -4.99612 -11.5691
ltibia 23.6972
lfoot -18.3321 7.78433
ltoes -56.1519
825
root -0.547794 18.775 5.54352 0.909714 6.46706 -2.57765
lowerback 14.5551 -0.450846 1.02483
upperback -0.345401 -0.283814 1.57017
thorax -8.55688 -0.142378 1.16252
lowerneck -31.0936 -5.00889 -5.79702
upperneck 14.2277 -5.0235 3.24143
head 9.69973 -2.24957 1.23476
rclavicle -6.5102e-015 -2.38542e-014
rhumerus 53.3027 12.0216 -56.2834
rradius 47.1101
rwrist -47.3513
rhand 8.40538 -67.3563
rfingers 7.12502
rthumb 33.6124 -265.775
lclavicle -6.5102e-015 -2.38542e-014
lhumerus 51.3983 -21.8074 72.8624
lradius 50.8694
lwrist 60.1023
lhand -18.9991 5.85566
lfingers 7.12502
lthumb 7.30598 35.7095
rfemur 8.13187 -6.9234 15.7398
rtibia -2.70347e-014
rfoot -16.3176 -10.0827
rtoes -0.994315
lfemur -8.4107 -4.89846 -11.5329
ltibia 23.6637
lfoot -18.257 7.69252
ltoes -56.1178
